<svg width="377" height="1133" viewBox="0 0 377 1133" fill="none" xmlns="http://www.w3.org/2000/svg">
<g filter="url(#filter0_d_56_3)">
<path d="M128.218 636.834L513.235 779.25L419.824 1110.31L3.99999 961.657L128.218 636.834Z" fill="url(#paint0_linear_56_3)"/>
</g>
<g filter="url(#filter1_d_56_3)">
<path d="M160.061 624L592.524 782.084L519.088 1125L36 948.411L160.061 624Z" fill="url(#paint1_linear_56_3)"/>
</g>
<path d="M376.5 0L376.5 116.5V241.751H55L376.5 0Z" fill="url(#paint2_linear_56_3)"/>
<path d="M376.5 0L376.5 116.5V241.751H55L376.5 0Z" fill="url(#paint3_linear_56_3)"/>
<path d="M56.5 241.751L376.5 241.751V367.002V615.5L56.5 241.751Z" fill="url(#paint4_linear_56_3)"/>
<path d="M56.5 241.751L376.5 241.751V367.002V615.5L56.5 241.751Z" fill="url(#paint5_linear_56_3)"/>
<defs>
<filter id="filter0_d_56_3" x="0" y="636.834" width="517.235" height="481.471" filterUnits="userSpaceOnUse" color-interpolation-filters="sRGB">
<feFlood flood-opacity="0" result="BackgroundImageFix"/>
<feColorMatrix in="SourceAlpha" type="matrix" values="0 0 0 0 0 0 0 0 0 0 0 0 0 0 0 0 0 0 127 0" result="hardAlpha"/>
<feOffset dy="4"/>
<feGaussianBlur stdDeviation="2"/>
<feComposite in2="hardAlpha" operator="out"/>
<feColorMatrix type="matrix" values="0 0 0 0 0 0 0 0 0 0 0 0 0 0 0 0 0 0 0.25 0"/>
<feBlend mode="normal" in2="BackgroundImageFix" result="effect1_dropShadow_56_3"/>
<feBlend mode="normal" in="SourceGraphic" in2="effect1_dropShadow_56_3" result="shape"/>
</filter>
<filter id="filter1_d_56_3" x="32" y="624" width="564.524" height="509" filterUnits="userSpaceOnUse" color-interpolation-filters="sRGB">
<feFlood flood-opacity="0" result="BackgroundImageFix"/>
<feColorMatrix in="SourceAlpha" type="matrix" values="0 0 0 0 0 0 0 0 0 0 0 0 0 0 0 0 0 0 127 0" result="hardAlpha"/>
<feOffset dy="4"/>
<feGaussianBlur stdDeviation="2"/>
<feComposite in2="hardAlpha" operator="out"/>
<feColorMatrix type="matrix" values="0 0 0 0 0 0 0 0 0 0 0 0 0 0 0 0 0 0 0.25 0"/>
<feBlend mode="normal" in2="BackgroundImageFix" result="effect1_dropShadow_56_3"/>
<feBlend mode="normal" in="SourceGraphic" in2="effect1_dropShadow_56_3" result="shape"/>
</filter>
<linearGradient id="paint0_linear_56_3" x1="523.111" y1="324.26" x2="-116.004" y2="558.309" gradientUnits="userSpaceOnUse">
<stop stop-color="#DBD9D9"/>
<stop offset="1" stop-color="#464646"/>
</linearGradient>
<linearGradient id="paint1_linear_56_3" x1="633.913" y1="330.54" x2="-259.485" y2="628.652" gradientUnits="userSpaceOnUse">
<stop stop-color="#FF0000"/>
<stop offset="1" stop-color="#464646"/>
</linearGradient>
<linearGradient id="paint2_linear_56_3" x1="-91.9999" y1="179.627" x2="330.434" y2="197.669" gradientUnits="userSpaceOnUse">
<stop stop-color="#D6D6D6"/>
<stop offset="1" stop-color="#A6A6A6"/>
</linearGradient>
<linearGradient id="paint3_linear_56_3" x1="-91.9999" y1="179.627" x2="330.434" y2="197.669" gradientUnits="userSpaceOnUse">
<stop stop-color="#D6D6D6"/>
<stop offset="1" stop-color="#A6A6A6"/>
</linearGradient>
<linearGradient id="paint4_linear_56_3" x1="-129" y1="316.401" x2="330.757" y2="323.894" gradientUnits="userSpaceOnUse">
<stop stop-color="#D6D6D6"/>
<stop offset="1" stop-color="#A6A6A6"/>
</linearGradient>
<linearGradient id="paint5_linear_56_3" x1="-129" y1="316.401" x2="330.757" y2="323.894" gradientUnits="userSpaceOnUse">
<stop stop-color="#D6D6D6"/>
<stop offset="1" stop-color="#A6A6A6"/>
</linearGradient>
</defs>
</svg>
